<?xml version="1.0" standalone="no"?>
<!DOCTYPE svg PUBLIC "-//W3C//DTD SVG 20010904//EN"
 "http://www.w3.org/TR/2001/REC-SVG-20010904/DTD/svg10.dtd">
<svg version="1.0" xmlns="http://www.w3.org/2000/svg"
 width="300.000000pt" height="300.000000pt" viewBox="0 0 300.000000 300.000000"
 preserveAspectRatio="xMidYMid meet">
<metadata>
Created by potrace 1.11, written by Peter Selinger 2001-2013
</metadata>
<g transform="translate(0.000000,300.000000) scale(0.100000,-0.100000)"
fill="#000000" stroke="none">
<path d="M1355 2993 c-201 -24 -375 -76 -544 -163 -411 -213 -697 -599 -788
-1065 -24 -125 -24 -405 0 -530 29 -148 74 -279 142 -413 212 -418 599 -707
1070 -799 137 -27 416 -24 555 6 151 32 268 74 400 142 404 209 683 580 781
1039 30 139 33 418 6 555 -114 583 -532 1036 -1094 1185 -150 40 -391 60 -528
43z m247 -583 c571 -66 944 -636 772 -1182 -185 -588 -879 -830 -1389 -485
-277 187 -432 522 -396 851 52 463 424 805 896 825 17 0 69 -4 117 -9z"/>
<path d="M1411 1733 c-88 -31 -161 -136 -161 -233 0 -60 30 -130 75 -175 98
-98 252 -98 350 0 188 188 -12 497 -264 408z"/>
</g>
</svg>
